<svg width="50" height="35" viewBox="0 0 50 35" fill="none" xmlns="http://www.w3.org/2000/svg">
<path fill-rule="evenodd" clip-rule="evenodd" d="M0.74639 0.192987C0.522803 0.308678 0.304392 0.528806 0.183368 0.76057C-0.0118927 1.13435 -0.0141393 1.26234 0.0113549 10.7187C0.0369469 20.2255 0.0387051 20.3002 0.238557 20.5615C0.349325 20.7064 0.561288 20.9133 0.709565 21.0215C0.970661 21.212 1.11191 21.219 5.1691 21.245L9.35895 21.2718L9.38659 27.6352C9.41424 33.9861 9.41473 33.9992 9.62737 34.3324C10.0484 34.9921 10.0913 35 13.263 35H16.1048L16.4904 34.6598C16.8712 34.324 16.9074 34.2279 19.3249 27.1411L21.7736 19.9626L21.7477 10.4637C21.7221 1.03821 21.7203 0.962672 21.5205 0.701342C21.4097 0.556465 21.1978 0.349499 21.0494 0.241342C20.7816 0.0461077 20.7094 0.0444869 10.9457 0.0242672C1.30873 0.00433361 1.10429 0.00776689 0.74639 0.192987ZM29.1406 0.131183C28.7477 0.298282 28.3369 0.785558 28.2665 1.16811C28.2353 1.33712 28.2226 5.71049 28.2382 10.8867C28.2662 20.2219 28.2681 20.3003 28.4678 20.5615C28.5786 20.7064 28.7905 20.9133 28.9388 21.0215C29.2 21.2121 29.3407 21.219 33.4485 21.245L37.6884 21.2717L37.7149 27.7528L37.7413 34.2338L38.109 34.5931L38.4768 34.9523L41.3537 34.9803C44.5459 35.0112 44.6502 34.9947 45.0227 34.3992C45.1277 34.2314 46.2905 30.9376 47.6069 27.0801L50 20.0661V10.6C50 1.30107 49.9965 1.12729 49.8034 0.757518C49.6768 0.515167 49.4693 0.312589 49.2211 0.188981C48.8423 0.000327561 48.6683 -0.00291513 39.1371 0.000709164C31.2945 0.0037612 29.3815 0.028654 29.1406 0.131183Z" fill="#51B9FC"/>
</svg>
